<svg width="29" height="29" viewBox="0 0 29 29" fill="none" xmlns="http://www.w3.org/2000/svg">
<path d="M3.625 22.9589C5.27821 22.0044 7.15354 21.502 9.0625 21.502C10.9715 21.502 12.8468 22.0044 14.5 22.9589C16.1532 22.0044 18.0285 21.502 19.9375 21.502C21.8465 21.502 23.7218 22.0044 25.375 22.9589" stroke="#F1F1F1" stroke-width="2" stroke-linecap="round" stroke-linejoin="round"/>
<path d="M3.625 7.24994C5.27821 6.29546 7.15354 5.79297 9.0625 5.79297C10.9715 5.79297 12.8468 6.29546 14.5 7.24994C16.1532 6.29546 18.0285 5.79297 19.9375 5.79297C21.8465 5.79297 23.7218 6.29546 25.375 7.24994" stroke="#F1F1F1" stroke-width="2" stroke-linecap="round" stroke-linejoin="round"/>
<path d="M3.625 7.25V22.9583" stroke="#F1F1F1" stroke-width="2" stroke-linecap="round" stroke-linejoin="round"/>
<path d="M14.5 7.25V22.9583" stroke="#F1F1F1" stroke-width="2" stroke-linecap="round" stroke-linejoin="round"/>
<path d="M25.375 7.25V22.9583" stroke="#F1F1F1" stroke-width="2" stroke-linecap="round" stroke-linejoin="round"/>
</svg>
