<svg xmlns="http://www.w3.org/2000/svg" width="358" height="107" viewBox="0 0 358 107">
    <path fill="#007096" fill-rule="nonzero" d="M47.896.056h14.07v103.287h-14.07v-6.238c-5.52 5.3-11.767 7.95-18.74 7.95-8.3 0-15.19-2.976-20.669-8.928C3.05 90.052.332 82.469.332 73.378c0-8.888 2.718-16.307 8.155-22.26 5.396-5.993 12.182-8.99 20.358-8.99 7.097 0 13.448 2.855 19.05 8.562V.056zM14.65 73.378c0 5.708 1.556 10.355 4.669 13.943 3.196 3.628 7.222 5.442 12.078 5.442 5.188 0 9.38-1.753 12.575-5.259 3.196-3.628 4.794-8.235 4.794-13.82 0-5.586-1.598-10.192-4.794-13.82-3.195-3.548-7.346-5.321-12.45-5.321-4.815 0-8.841 1.794-12.079 5.381-3.196 3.629-4.793 8.113-4.793 13.454zm121.096 3.425H92.292c.373 4.892 1.992 8.785 4.856 11.68 2.863 2.854 6.537 4.28 11.02 4.28 3.486 0 6.37-.815 8.653-2.446 2.241-1.63 4.794-4.647 7.657-9.05l11.83 6.482c-1.827 3.058-3.757 5.677-5.79 7.858-2.034 2.181-4.213 3.975-6.538 5.382a26.474 26.474 0 0 1-7.533 3.088c-2.698.652-5.624.978-8.778.978-9.048 0-16.311-2.854-21.79-8.561-5.478-5.749-8.218-13.372-8.218-22.871 0-9.418 2.657-17.042 7.97-22.872 5.353-5.748 12.45-8.622 21.291-8.622 8.923 0 15.98 2.792 21.167 8.378 5.147 5.544 7.72 13.23 7.72 23.054l-.062 3.242zM121.366 65.55c-1.951-7.338-6.662-11.007-14.133-11.007-1.701 0-3.3.255-4.794.764a13.79 13.79 0 0 0-4.077 2.202 14.043 14.043 0 0 0-3.144 3.455c-.872 1.345-1.536 2.874-1.993 4.586h28.14zm35.929-23.075l15.688 33.451 15.627-33.45h15.75l-31.501 63.66-31.253-63.66h15.689zm60.042 0h7.65v61.982h-7.65V42.476zm-1.913-19.913c0-1.586.553-2.922 1.658-4.007 1.105-1.086 2.465-1.629 4.08-1.629 1.615 0 2.975.543 4.08 1.629 1.105 1.085 1.658 2.42 1.658 4.007 0 1.587-.553 2.923-1.658 4.008s-2.465 1.628-4.08 1.628c-1.615 0-2.975-.543-4.08-1.628s-1.658-2.421-1.658-4.008zm84.094 69.579c-3.049 4.534-6.816 7.785-11.302 9.753-4.485 1.968-9.428 2.952-14.829 2.952-4.616 0-8.797-.77-12.542-2.31-3.745-1.54-6.968-3.7-9.668-6.481-2.7-2.78-4.769-6.075-6.206-9.882-1.437-3.807-2.156-8.02-2.156-12.64 0-4.45.74-8.556 2.221-12.32 1.48-3.765 3.571-7.038 6.271-9.818 2.7-2.781 5.88-4.963 9.538-6.545 3.658-1.583 7.708-2.375 12.15-2.375 4.617 0 8.689.792 12.216 2.375 3.528 1.582 6.49 3.678 8.885 6.288a26.528 26.528 0 0 1 5.422 8.92c1.219 3.336 1.829 6.715 1.829 10.138v5.39h-50.693c0 1.625.327 3.7.98 6.224s1.851 4.983 3.593 7.379 4.072 4.449 6.99 6.16c2.918 1.711 6.685 2.567 11.301 2.567 4.007 0 7.883-.941 11.628-2.824 3.745-1.882 6.62-4.449 8.623-7.7l5.749 4.749zm-5.821-22.613c0-2.589-.532-5.01-1.594-7.264a19.433 19.433 0 0 0-4.335-5.95c-1.828-1.71-3.995-3.068-6.503-4.07-2.507-1.001-5.164-1.502-7.969-1.502-4.165 0-7.629.835-10.391 2.504-2.763 1.67-4.951 3.59-6.566 5.762-1.615 2.17-2.763 4.279-3.443 6.324-.68 2.046-1.02 3.444-1.02 4.196h41.82zm25.04 18.738c1.645 3.146 4.069 5.548 7.271 7.206 3.203 1.658 6.579 2.487 10.128 2.487 1.644 0 3.289-.255 4.933-.765 1.645-.51 3.117-1.233 4.415-2.168a11.906 11.906 0 0 0 3.18-3.38c.823-1.318 1.234-2.827 1.234-4.527 0-2.721-.887-4.762-2.661-6.122-1.775-1.36-3.96-2.423-6.557-3.188-2.597-.766-5.453-1.425-8.57-1.977-3.115-.553-5.972-1.403-8.568-2.55-2.597-1.149-4.783-2.743-6.557-4.783-1.775-2.041-2.662-4.932-2.662-8.673 0-2.89.606-5.399 1.818-7.524a16.523 16.523 0 0 1 4.739-5.293c1.947-1.403 4.133-2.444 6.557-3.125 2.423-.68 4.89-1.02 7.4-1.02 4.934 0 9.197.893 12.79 2.678a18.01 18.01 0 0 1 4.973 3.634c1.316 1.361 2.45 2.956 3.4 4.784l-7.01 4.08c-1.472-2.72-3.311-4.782-5.519-6.185-2.207-1.403-5.085-2.104-8.634-2.104-1.385 0-2.834.213-4.35.638-1.514.425-2.877 1.02-4.089 1.785a10.467 10.467 0 0 0-3.051 2.933c-.822 1.19-1.234 2.551-1.234 4.082 0 2.635.888 4.59 2.662 5.866 1.774 1.275 3.96 2.274 6.557 2.997 2.596.723 5.453 1.34 8.569 1.85 3.116.51 5.972 1.339 8.57 2.486 2.596 1.148 4.781 2.806 6.556 4.974 1.774 2.168 2.661 5.25 2.661 9.246 0 3.061-.584 5.718-1.752 7.971a16.555 16.555 0 0 1-4.804 5.676c-2.034 1.53-4.35 2.678-6.946 3.443-2.597.765-5.324 1.148-8.18 1.148-5.194 0-9.933-.978-14.217-2.933-4.285-1.956-7.596-4.974-9.933-9.055l6.882-4.592z"/>
</svg>
