<svg width="259" height="104" viewBox="0 0 259 104" fill="none" xmlns="http://www.w3.org/2000/svg">
<path d="M123.232 31.64V36.104H109.072V45.944H120.112V50.408H109.072V65H103.6V31.64H123.232ZM131.087 35.048C130.095 35.048 129.263 34.712 128.591 34.04C127.919 33.368 127.583 32.536 127.583 31.544C127.583 30.552 127.919 29.72 128.591 29.048C129.263 28.376 130.095 28.04 131.087 28.04C132.047 28.04 132.863 28.376 133.535 29.048C134.207 29.72 134.543 30.552 134.543 31.544C134.543 32.536 134.207 33.368 133.535 34.04C132.863 34.712 132.047 35.048 131.087 35.048ZM133.775 38.552V65H128.303V38.552H133.775ZM151.615 38.12C153.663 38.12 155.471 38.536 157.039 39.368C158.639 40.168 159.887 41.176 160.783 42.392V38.552H166.303V65.432C166.303 67.864 165.791 70.024 164.767 71.912C163.743 73.832 162.255 75.336 160.303 76.424C158.383 77.512 156.079 78.056 153.391 78.056C149.807 78.056 146.831 77.208 144.463 75.512C142.095 73.848 140.751 71.576 140.431 68.696H145.855C146.271 70.072 147.151 71.176 148.495 72.008C149.871 72.872 151.503 73.304 153.391 73.304C155.599 73.304 157.375 72.632 158.719 71.288C160.095 69.944 160.783 67.992 160.783 65.432V61.016C159.855 62.264 158.591 63.32 156.991 64.184C155.423 65.016 153.631 65.432 151.615 65.432C149.311 65.432 147.199 64.856 145.279 63.704C143.391 62.52 141.887 60.888 140.767 58.808C139.679 56.696 139.135 54.312 139.135 51.656C139.135 49 139.679 46.648 140.767 44.6C141.887 42.552 143.391 40.968 145.279 39.848C147.199 38.696 149.311 38.12 151.615 38.12ZM160.783 51.752C160.783 49.928 160.399 48.344 159.631 47C158.895 45.656 157.919 44.632 156.703 43.928C155.487 43.224 154.175 42.872 152.767 42.872C151.359 42.872 150.047 43.224 148.831 43.928C147.615 44.6 146.623 45.608 145.855 46.952C145.119 48.264 144.751 49.832 144.751 51.656C144.751 53.48 145.119 55.08 145.855 56.456C146.623 57.832 147.615 58.888 148.831 59.624C150.079 60.328 151.391 60.68 152.767 60.68C154.175 60.68 155.487 60.328 156.703 59.624C157.919 58.92 158.895 57.896 159.631 56.552C160.399 55.176 160.783 53.576 160.783 51.752ZM205.507 38.12C207.587 38.12 209.443 38.552 211.075 39.416C212.739 40.28 214.035 41.56 214.963 43.256C215.923 44.952 216.403 47 216.403 49.4V65H210.979V50.216C210.979 47.848 210.387 46.04 209.203 44.792C208.019 43.512 206.403 42.872 204.355 42.872C202.307 42.872 200.675 43.512 199.459 44.792C198.275 46.04 197.683 47.848 197.683 50.216V65H192.259V50.216C192.259 47.848 191.667 46.04 190.483 44.792C189.299 43.512 187.683 42.872 185.635 42.872C183.587 42.872 181.955 43.512 180.739 44.792C179.555 46.04 178.963 47.848 178.963 50.216V65H173.491V38.552H178.963V41.576C179.859 40.488 180.995 39.64 182.371 39.032C183.747 38.424 185.219 38.12 186.787 38.12C188.899 38.12 190.787 38.568 192.451 39.464C194.115 40.36 195.395 41.656 196.291 43.352C197.091 41.752 198.339 40.488 200.035 39.56C201.731 38.6 203.555 38.12 205.507 38.12ZM221.542 51.656C221.542 49 222.086 46.648 223.174 44.6C224.294 42.552 225.798 40.968 227.686 39.848C229.606 38.696 231.718 38.12 234.022 38.12C236.102 38.12 237.91 38.536 239.446 39.368C241.014 40.168 242.262 41.176 243.19 42.392V38.552H248.71V65H243.19V61.064C242.262 62.312 240.998 63.352 239.398 64.184C237.798 65.016 235.974 65.432 233.926 65.432C231.654 65.432 229.574 64.856 227.686 63.704C225.798 62.52 224.294 60.888 223.174 58.808C222.086 56.696 221.542 54.312 221.542 51.656ZM243.19 51.752C243.19 49.928 242.806 48.344 242.038 47C241.302 45.656 240.326 44.632 239.11 43.928C237.894 43.224 236.582 42.872 235.174 42.872C233.766 42.872 232.454 43.224 231.238 43.928C230.022 44.6 229.03 45.608 228.262 46.952C227.526 48.264 227.158 49.832 227.158 51.656C227.158 53.48 227.526 55.08 228.262 56.456C229.03 57.832 230.022 58.888 231.238 59.624C232.486 60.328 233.798 60.68 235.174 60.68C236.582 60.68 237.894 60.328 239.11 59.624C240.326 58.92 241.302 57.896 242.038 56.552C242.806 55.176 243.19 53.576 243.19 51.752Z" fill="#F1F1F1"/>
<g clip-path="url(#clip0)">
<path d="M17.2544 104.001C26.7745 104.001 34.5009 96.2353 34.5009 86.6673V69.334H17.2544C7.73427 69.334 0.0078125 77.0993 0.0078125 86.6673C0.0078125 96.2353 7.73427 104.001 17.2544 104.001Z" fill="#0ACF83"/>
<path d="M0.0078125 51.9994C0.0078125 42.4314 7.73427 34.666 17.2544 34.666H34.5009V69.3327H17.2544C7.73427 69.3327 0.0078125 61.5674 0.0078125 51.9994Z" fill="#A259FF"/>
<path d="M0.0078125 17.3333C0.0078125 7.76533 7.73427 0 17.2544 0H34.5009V34.6667H17.2544C7.73427 34.6667 0.0078125 26.9013 0.0078125 17.3333Z" fill="#F24E1E"/>
<path d="M34.5 0H51.7465C61.2666 0 68.9931 7.76533 68.9931 17.3333C68.9931 26.9013 61.2666 34.6667 51.7465 34.6667H34.5V0Z" fill="#FF7262"/>
<path d="M68.9931 51.9994C68.9931 61.5674 61.2666 69.3327 51.7465 69.3327C42.2265 69.3327 34.5 61.5674 34.5 51.9994C34.5 42.4314 42.2265 34.666 51.7465 34.666C61.2666 34.666 68.9931 42.4314 68.9931 51.9994Z" fill="#1ABCFE"/>
</g>
<defs>
<clipPath id="clip0">
<rect width="69" height="104" fill="white"/>
</clipPath>
</defs>
</svg>
