<svg width="318" height="84" viewBox="0 0 318 84" fill="none" xmlns="http://www.w3.org/2000/svg">
<g clip-path="url(#clip0)">
<path d="M188.7 36.0006H197.1V66.0006H188.7V62.1006C185.7 66.6006 181.8 66.9006 179.4 66.9006C170.1 66.9006 164.1 59.7006 164.1 51.0006C164.1 42.0006 170.1 35.1006 178.8 35.1006C181.2 35.1006 185.7 35.4006 188.4 39.9006V36.0006H188.7ZM173.1 51.0006C173.1 55.8006 176.4 59.4006 181.5 59.4006C186.3 59.4006 189.9 55.8006 189.9 51.0006C189.9 46.2006 186.6 42.6006 181.5 42.6006C176.7 42.6006 173.1 46.2006 173.1 51.0006ZM213.6 43.2006V66.0006H205.2V43.2006H201.9V36.0006H205.2V25.8006H213.6V36.0006H219.3V43.2006H213.6ZM239.1 43.2006C237 41.4006 235.2 41.1006 234.3 41.1006C232.2 41.1006 231 42.0006 231 43.5006C231 44.4006 231.3 45.3006 233.7 46.2006L235.8 46.8006C238.2 47.7006 241.8 48.6006 243.3 51.0006C244.2 52.2006 244.8 54.0006 244.8 56.1006C244.8 58.8006 243.9 61.5006 241.5 63.6006C239.1 65.7006 236.1 66.9006 232.5 66.9006C226.2 66.9006 222.9 63.9006 220.8 61.8006L225.3 56.7006C227.1 58.5006 229.5 60.3006 231.9 60.3006C234.3 60.3006 236.1 59.1006 236.1 57.0006C236.1 55.2006 234.6 54.3006 233.4 54.0006L231.6 53.4006C229.5 52.5006 227.1 51.6006 225.3 49.8006C223.8 48.3006 222.9 46.5006 222.9 44.1006C222.9 41.1006 224.4 38.7006 225.9 37.2006C228.3 35.4006 231.3 35.1006 233.7 35.1006C235.8 35.1006 239.4 35.4006 243.3 38.4006L239.1 43.2006ZM257.4 39.9006C260.4 35.7006 264.6 35.1006 267 35.1006C275.7 35.1006 281.7 42.0006 281.7 51.0006C281.7 60.0006 275.7 66.9006 266.7 66.9006C264.9 66.9006 260.4 66.6006 257.1 62.1006V66.0006H249V15.6006H257.4V39.9006ZM256.5 51.0006C256.5 55.8006 259.8 59.4006 264.9 59.4006C269.7 59.4006 273.3 55.8006 273.3 51.0006C273.3 46.2006 270 42.6006 264.9 42.6006C259.8 42.6006 256.5 46.2006 256.5 51.0006ZM295.5 61.5006L281.1 36.0006H291L300.3 53.1006L308.7 36.0006H318.3L294.3 81.9006H284.7L295.5 61.5006ZM162 41.1006H141V49.5006H152.1C150.3 55.2006 146.1 59.1006 138.3 59.1006C129.6 59.1006 123.3 51.9006 123.3 43.2006C123.3 34.5006 129.3 27.0006 138 27.0006C142.8 27.0006 147.6 29.4006 150.6 33.3006L157.5 28.8006C153 22.5006 145.8 18.9006 138 18.9006C124.8 18.9006 114 29.7006 114 43.2006C114 56.7006 124.2 67.5006 138 67.5006C151.8 67.5006 162 56.7006 162 43.2006C162.3 42.3006 162 41.7006 162 41.1006Z" fill="white"/>
<path d="M75 42H54V48H68.4C66.3 57 59.7 64.5 51 67.5L16.5 33C20.1 22.5 30.3 15 42 15C51 15 59.1 19.5 64.2 26.4L68.7 22.5C62.7 14.4 53.1 9 42 9C26.4 9 13.2 20.1 9.9 34.8L49.5 74.4C63.9 70.8 75 57.6 75 42ZM9 42.3C9 50.7 12.3 58.8 18.6 65.1C24.9 71.4 33.3 74.7 41.4 74.7L9 42.3Z" fill="white"/>
<path d="M42 0C18.9 0 0 18.9 0 42C0 65.1 18.9 84 42 84C65.1 84 84 65.1 84 42C84 18.9 65.1 0 42 0ZM18.6 65.4C12.3 59.1 9 50.7 9 42.6L41.7 75C33.3 74.7 24.9 71.7 18.6 65.4ZM49.2 74.1L9.9 34.8C13.2 20.1 26.4 9 42 9C53.1 9 62.7 14.4 68.7 22.5L64.2 26.4C59.1 19.5 51 15 42 15C30.3 15 20.4 22.5 16.5 33L51 67.5C59.7 64.5 66.3 57 68.4 48H54V42H75C75 57.6 63.9 70.8 49.2 74.1Z" fill="#663399"/>
</g>
<defs>
<clipPath id="clip0">
<rect width="318" height="84" fill="white"/>
</clipPath>
</defs>
</svg>
