<svg width="30" height="30" viewBox="0 0 30 30" fill="none" xmlns="http://www.w3.org/2000/svg">
<path d="M23.75 8.75H6.25C4.86929 8.75 3.75 9.86929 3.75 11.25V22.5C3.75 23.8807 4.86929 25 6.25 25H23.75C25.1307 25 26.25 23.8807 26.25 22.5V11.25C26.25 9.86929 25.1307 8.75 23.75 8.75Z" stroke="#F1F1F1" stroke-width="2" stroke-linecap="round" stroke-linejoin="round"/>
<path d="M10 8.75V6.25C10 5.58696 10.2634 4.95107 10.7322 4.48223C11.2011 4.01339 11.837 3.75 12.5 3.75H17.5C18.163 3.75 18.7989 4.01339 19.2678 4.48223C19.7366 4.95107 20 5.58696 20 6.25V8.75" stroke="#F1F1F1" stroke-width="2" stroke-linecap="round" stroke-linejoin="round"/>
<path d="M15 15V15.0125" stroke="#F1F1F1" stroke-width="2" stroke-linecap="round" stroke-linejoin="round"/>
<path d="M3.75 16.25C7.23948 18.0084 11.0925 18.9243 15 18.9243C18.9075 18.9243 22.7605 18.0084 26.25 16.25" stroke="#F1F1F1" stroke-width="2" stroke-linecap="round" stroke-linejoin="round"/>
</svg>
