<svg width="328" height="319" viewBox="0 0 328 319" fill="none" xmlns="http://www.w3.org/2000/svg">
<g filter="url(#filter0_d)">
<path d="M26.9986 188.996C11.171 178.786 2.5 161.996 4.49989 153.991C7 147.496 21.6 142.996 40 156.996C58.4 170.996 121.498 206.49 125.498 206.991C129.498 207.492 133.998 204.992 132.998 200.491C131.998 195.99 30.7124 120.491 26.9983 113.991C23.2842 107.491 22.5986 96.0911 26.9983 90.4911C31.398 84.8911 45.9983 86.9919 48.9983 87.9911C51.9983 88.9902 146.998 168.492 151.998 169.491C156.998 170.49 159.998 164.49 156.998 162.991C153.998 161.492 62.5 61.9811 57.5 54.9906C52.5 48 49.5939 36.3054 54 31.5C59.5 25.5016 72 26.4968 77 29.4984C82 32.5 179.498 135.991 182.498 136.491C185.498 136.991 184.506 134.983 187.003 129.99C189.5 124.998 118.477 37.3963 112.5 29.4984C106.523 21.6005 105.15 8.91572 112.5 3.49987C122 -3.49982 135.211 2.99902 142 12.4981L211 103.143C241.116 127.165 265.998 146.991 265.998 146.991C250.832 116.324 237.723 77.8635 245 62.5C249.5 53 249.499 48 262 48C280.4 48 302.002 147.491 318.502 180.491C324.502 218.491 323.502 203.49 323.502 232.991C323.502 262.491 272.955 297.18 240.502 305.491C199.502 315.991 187.001 307.991 172.502 300.491C164.803 296.508 134.139 264.031 102 236.496C73.6152 212.178 42.5009 198.997 26.9986 188.996Z" fill="#F2DD6B"/>
</g>
<path d="M258.001 150.991C253.001 161.491 252.002 184.791 258.002 197.991C264.002 211.191 273.669 218.325 279.502 222.991" stroke="#FD9800" stroke-opacity="0.28" stroke-width="4" stroke-linecap="round"/>
<defs>
<filter id="filter0_d" x="0.21582" y="0.55957" width="327.349" height="317.973" filterUnits="userSpaceOnUse" color-interpolation-filters="sRGB">
<feFlood flood-opacity="0" result="BackgroundImageFix"/>
<feColorMatrix in="SourceAlpha" type="matrix" values="0 0 0 0 0 0 0 0 0 0 0 0 0 0 0 0 0 0 127 0"/>
<feOffset dy="4"/>
<feGaussianBlur stdDeviation="2"/>
<feColorMatrix type="matrix" values="0 0 0 0 0.992157 0 0 0 0 0.596078 0 0 0 0 0 0 0 0 0.52 0"/>
<feBlend mode="normal" in2="BackgroundImageFix" result="effect1_dropShadow"/>
<feBlend mode="normal" in="SourceGraphic" in2="effect1_dropShadow" result="shape"/>
</filter>
</defs>
</svg>
